# xmcd CD database file
#
# Track frame offsets:
#	150
#	13152
#	27690
#	39250
#	49264
#	65385
#	80462
#	96175
#	111502
#	128362
#	144387
#	153867
#	165917
#	179645
#	187750
#	202832
#	217875
#	236682
#	244727
#	259202
#	273297
#	285162
#	301385
#	315177
#
# Disc length: 4379 seconds
#
# Revision: 0
# Processed by: cddbd v1.5PL3 Copyright (c) Steve Scherf et al.
# Submitted via: CDex 1.60beta1
#
DISCID=3b111918
DTITLE=Woody Herman and His Orchestra - Volume One - The Wildroot Broadcasts, 1945-1946
DYEAR=1900
DGENRE=Jazz
TTITLE0=Get Happy
TTITLE1=Panacea
TTITLE2=The Good Earth
TTITLE3=A Melody From The Sky
TTITLE4=Gotta' Be This or That
TTITLE5=Sidewalks Of Cuba
TTITLE6=Just A-Sittin' And A-Rockin'
TTITLE7=Blowin' Up A Storm
TTITLE8=One-Two-Three-Four Jump
TTITLE9=Wild Root
TTITLE10=Crazy Rhythm
TTITLE11=Laura
TTITLE12=Red Top
TTITLE13=Hallelujah
TTITLE14=Your Father's Moustache
TTITLE15=It's Only A Paper Moon
TTITLE16=They Went That-A-Way
TTITLE17=Superman With A Horn
TTITLE18=Put That Ring On My Finger
TTITLE19=Bijou (Rhumba A-La Jazz)
TTITLE20=Ee-Baba-Leba
TTITLE21=The Man I Love
TTITLE22=Caldonia
TTITLE23=Apple Honey
EXTD=
EXTT0=
EXTT1=
EXTT2=
EXTT3=
EXTT4=
EXTT5=
EXTT6=
EXTT7=
EXTT8=
EXTT9=
EXTT10=
EXTT11=
EXTT12=
EXTT13=
EXTT14=
EXTT15=
EXTT16=
EXTT17=
EXTT18=
EXTT19=
EXTT20=
EXTT21=
EXTT22=
EXTT23=
PLAYORDER=
